<svg width="44" height="46" viewBox="0 0 44 46" fill="none" xmlns="http://www.w3.org/2000/svg">
<g id="&#240;&#159;&#166;&#134; icon &#34;thumbs up&#34;">
<path id="Vector" d="M33.8091 45.0365H1.56374C0.700112 45.0365 0 44.3365 0 43.4728V17.9318C0 17.0682 0.700112 16.3681 1.56374 16.3681H8.7768C10.6078 16.3681 12.3044 15.4074 13.2464 13.8374L20.3104 2.06411C21.8348 -0.47625 25.4248 -0.717742 27.2755 1.59565C28.1478 2.68606 28.429 4.13538 28.0277 5.47292L25.3631 14.355C25.0621 15.3583 25.8134 16.3681 26.8609 16.3681H38.7846C42.2215 16.3681 44.7177 19.6363 43.8134 22.9519L38.8378 41.1955C38.2194 43.4634 36.1597 45.0365 33.8091 45.0365Z" fill="white"/>
</g>
</svg>
