<svg width="44" height="33" viewBox="0 0 44 33" fill="none" xmlns="http://www.w3.org/2000/svg">
<path id="Vector" d="M41.25 33C41.25 33 44 33 44 30.25C44 27.5 41.25 19.25 30.25 19.25C19.25 19.25 16.5 27.5 16.5 30.25C16.5 33 19.25 33 19.25 33H41.25ZM19.3105 30.25L19.25 30.239C19.2528 29.513 19.7092 27.4065 21.34 25.509C22.858 23.7297 25.5255 22 30.25 22C34.9717 22 37.6393 23.7325 39.16 25.509C40.7907 27.4065 41.2445 29.5157 41.25 30.239L41.228 30.2445L41.1895 30.25H19.3105ZM30.25 13.75C31.7087 13.75 33.1076 13.1705 34.1391 12.1391C35.1705 11.1076 35.75 9.70869 35.75 8.25C35.75 6.79131 35.1705 5.39236 34.1391 4.36091C33.1076 3.32946 31.7087 2.75 30.25 2.75C28.7913 2.75 27.3924 3.32946 26.3609 4.36091C25.3295 5.39236 24.75 6.79131 24.75 8.25C24.75 9.70869 25.3295 11.1076 26.3609 12.1391C27.3924 13.1705 28.7913 13.75 30.25 13.75ZM38.5 8.25C38.5 9.33341 38.2866 10.4062 37.872 11.4071C37.4574 12.4081 36.8497 13.3175 36.0836 14.0836C35.3175 14.8497 34.4081 15.4574 33.4071 15.872C32.4062 16.2866 31.3334 16.5 30.25 16.5C29.1666 16.5 28.0938 16.2866 27.0929 15.872C26.0919 15.4574 25.1825 14.8497 24.4164 14.0836C23.6503 13.3175 23.0426 12.4081 22.628 11.4071C22.2134 10.4062 22 9.33341 22 8.25C22 6.06196 22.8692 3.96354 24.4164 2.41637C25.9635 0.869194 28.062 0 30.25 0C32.438 0 34.5365 0.869194 36.0836 2.41637C37.6308 3.96354 38.5 6.06196 38.5 8.25ZM19.074 20.02C17.9733 19.676 16.8396 19.4483 15.6915 19.3407C15.0463 19.2778 14.3983 19.2475 13.75 19.25C2.75 19.25 0 27.5 0 30.25C0 32.0833 0.916667 33 2.75 33H14.344C13.9365 32.1414 13.7332 31.2002 13.75 30.25C13.75 27.4725 14.7867 24.6345 16.7475 22.264C17.4158 21.4555 18.194 20.6992 19.074 20.02ZM13.53 22C11.9034 24.446 11.0243 27.3127 11 30.25H2.75C2.75 29.535 3.201 27.4175 4.84 25.509C6.33875 23.76 8.943 22.055 13.53 22.0028V22ZM4.125 9.625C4.125 7.43696 4.99419 5.33854 6.54137 3.79137C8.08854 2.24419 10.187 1.375 12.375 1.375C14.563 1.375 16.6615 2.24419 18.2086 3.79137C19.7558 5.33854 20.625 7.43696 20.625 9.625C20.625 11.813 19.7558 13.9115 18.2086 15.4586C16.6615 17.0058 14.563 17.875 12.375 17.875C10.187 17.875 8.08854 17.0058 6.54137 15.4586C4.99419 13.9115 4.125 11.813 4.125 9.625ZM12.375 4.125C10.9163 4.125 9.51736 4.70446 8.48591 5.73591C7.45446 6.76736 6.875 8.16631 6.875 9.625C6.875 11.0837 7.45446 12.4826 8.48591 13.5141C9.51736 14.5455 10.9163 15.125 12.375 15.125C13.8337 15.125 15.2326 14.5455 16.2641 13.5141C17.2955 12.4826 17.875 11.0837 17.875 9.625C17.875 8.16631 17.2955 6.76736 16.2641 5.73591C15.2326 4.70446 13.8337 4.125 12.375 4.125Z" fill="white"/>
</svg>
